<svg xmlns="http://www.w3.org/2000/svg" viewBox="0 0 211.25 110.15"><defs><style>.cls-1{fill:#a19695;}.cls-2{fill:#433e39;}</style></defs><title>reijer-stolk-logo</title><g id="Layer_2" data-name="Layer 2"><g id="Layer_1-2" data-name="Layer 1"><path class="cls-1" d="M205.09,57.76,198.77,59V16.24l5.2-4.8-27.2-.72L175.81,0H210l-1.28,25.84L209.57,59Zm-27.6-44.64.08-1.2H199ZM197.81,48.4,196,18.24l1.44-1.2Zm12.64-18.64-.8-3.76L211.25.72Z"/><path class="cls-1" d="M.8,80.39l.8,3.76L0,109.43Zm5.36-28,6.32-1.2V93.91l-5.2,4.8,27.2.72,1,10.72H1.28L2.56,84.31,1.68,51.19ZM33.76,97l-.08,1.2H12.24ZM13.44,61.75l1.84,30.16-1.44,1.2Z"/><path class="cls-2" d="M40.56,41.79l-5-36.62,2-.33Zm14.68,42,.56,2.58L38.88,84.92Zm.22-79.63H78.08l13.56,9.52,2.91,22.85L82.9,50.31l-4.82-3.48,9,21.29L97.12,82.45l-16,1.91L75.84,70.92,67.11,53.11H57.59L54.9,49V82.12L39.22,83.68,42,44,40.23,5ZM54.79,19.4l.67,20.27H72.71l7.17-5.94L79.54,21l-6.94-5L50.2,17.16Zm5,2-2.24,16-.67-17.14ZM66,54.79l-4.71,3.92L59,55.35ZM77.86,32.72l-3.36,2.8,3.36-14.11Zm9.18,21-3-2.24,11.2-12.88Zm9-37.75V32.61L93.54,14.13Z"/><path class="cls-2" d="M124.15,33.88l3.36-1-9,16.13ZM164.58,51.8l-6.27-6.38-15.68-3.36-7.16,3.13,1,8.51,20.05,12.44,12.43,11,1.57,16.8-9.74,12.88-20.95,3.36-19.93-5,4.37-13.77L137.7,95.7l13.45,1.24,5.93-9.64-9.74-12.43L126.62,68.6,119.9,51.24l9.74-19.49,20.5-4,17.13,8.74ZM126.39,87.19l10.87,6.16L124.82,90.1Zm20-10.75,2.47,3.7-20.72-9.08Zm-9.18-30.8,3.13-1-2,8.29ZM170.74,96l.57,3.14-7.84,7.61ZM168.06,55.5l-2.24-2,2.8-15.57Z"/></g></g></svg>